# xmcd
#
# Track frame offsets:
#	150
#	18045
#	44473
#	63668
#	77646
#	99232
#	116601
#	145158
#	166441
#	177370
#	192319
#	213513
#
# Disc length: 3069 seconds
#
# Revision: 1
# Processed by: cddbd v1.5.2PL0 Copyright (c) Steve Scherf et al.
# Submitted via: EasyCDDAExtractor 16.0.9.1
#
DISCID=a10bfb0c
DTITLE=Various Artist - HGCD: Màu Hoa Đỏ
DYEAR=2002
DGENRE=Country
TTITLE0=Đăng Dương, Trọng Tấn and Việt Hoàn - Việt Nam Quê Hương Tôi (Đỗ Nhuận)
TTITLE1=Thanh Hoa - Tình Yêu Trên Dòng Quan Họ (Nhạc: Phan Lạc Hoa, Thơ: Đỗ Tr
TTITLE1=ung Quân)
TTITLE2=Quang Thọ - Tình Ca (Hoàng Việt)
TTITLE3=Tốp Nữ - Qua Sông (Phạm Minh Tuấn)
TTITLE4=Trọng Tấn - Màu Hoa Đỏ (Thuận Yên)
TTITLE5=Tuyết Thanh and Thúy Lan - Đường Tôi Đi Dài Theo Đất Nước (Vũ Trọng Hối)
TTITLE6=Tốp Nữ and Lĩnh Xướng Thúy Lan - Quảng Bình Quê Ta Ơi (Hoàng Vân)
TTITLE7=Hương Mơ - Câu Hò Bên Bờ Hiền Lương (Nhạc: Hoàng Hiệp, Lời: Đăng Giao)
TTITLE8=Đức Long - Đường Trường Sơn Xe Anh Qua (Văn Dung)
TTITLE9=Tốp Nữ - Xuân Chiến Khu (Xuân Hồng)
TTITLE10=Lê Dung - Xa Khơi (Nguyễn Tài Tuệ)
TTITLE11=Đăng Dương, Trọng Tấn and Việt Hoàn - Đường Chúng Ta Đi (Huy Du)
EXTD=
EXTT0=
EXTT1=
EXTT2=
EXTT3=
EXTT4=
EXTT5=
EXTT6=
EXTT7=
EXTT8=
EXTT9=
EXTT10=
EXTT11=
PLAYORDER=
